<svg
  width="600"
  height="314"
  viewBox="0 0 600 314"
  fill="none"
  xmlns="http://www.w3.org/2000/svg"
>
  <rect width="600" height="314" fill="#F0F0F0" />
  <text
    fill="black"
    xml:space="preserve"
    style="white-space: pre"
    font-family="Inter"
    font-size="36"
    font-weight="bold"
    letter-spacing="0em"
  >
    <tspan dominant-baseline="middle" text-anchor="middle" x="300" y="130.091">
      Join [x] and
    </tspan>
  </text>
  <g filter="url(#filter0_d)">
    <rect x="53" y="151" width="495" height="70" rx="7" fill="white" />
  </g>
  <rect x="53" y="151" width="495" height="70" rx="35" fill="white" />
  <rect x="478" y="151" width="70" height="70" rx="7" fill="#23539B" />
  <text
    fill="#23539B"
    xml:space="preserve"
    style="white-space: pre"
    font-family="Inter"
    font-size="40"
    font-weight="bold"
    letter-spacing="0em"
  >
    <tspan x="81" y="201.545">#SearchWithAlles</tspan>
  </text>
  <path
    fill-rule="evenodd"
    clip-rule="evenodd"
    d="M513.34 198.253C520.917 198.253 527.059 192.111 527.059 184.535C527.059 176.958 520.917 170.816 513.34 170.816C505.764 170.816 499.622 176.958 499.622 184.535C499.622 192.111 505.764 198.253 513.34 198.253ZM513.34 195.205C519.233 195.205 524.011 190.428 524.011 184.535C524.011 178.642 519.233 173.865 513.34 173.865C507.448 173.865 502.67 178.642 502.67 184.535C502.67 190.428 507.448 195.205 513.34 195.205Z"
    fill="white"
  />
  <rect
    x="519.865"
    y="194.294"
    width="4.57292"
    height="12.2201"
    rx="2"
    transform="rotate(-45 519.865 194.294)"
    fill="white"
  />
  <rect x="478" y="151" width="9" height="70" fill="#23539B" />
  <defs>
    <filter
      id="filter0_d"
      x="49"
      y="151"
      width="503"
      height="78"
      filterUnits="userSpaceOnUse"
      color-interpolation-filters="sRGB"
    >
      <feFlood flood-opacity="0" result="BackgroundImageFix" />
      <feColorMatrix
        in="SourceAlpha"
        type="matrix"
        values="0 0 0 0 0 0 0 0 0 0 0 0 0 0 0 0 0 0 127 0"
      />
      <feOffset dy="4" />
      <feGaussianBlur stdDeviation="2" />
      <feColorMatrix
        type="matrix"
        values="0 0 0 0 0 0 0 0 0 0 0 0 0 0 0 0 0 0 0.25 0"
      />
      <feBlend
        mode="normal"
        in2="BackgroundImageFix"
        result="effect1_dropShadow"
      />
      <feBlend
        mode="normal"
        in="SourceGraphic"
        in2="effect1_dropShadow"
        result="shape"
      />
    </filter>
  </defs>
</svg>
